PathFileType	4	(X/Y/Z)	Patient4_TMGait_0pt8_01_left_12.trc.trc
DataRate	CameraRate	NumFrames	NumMarkers	Units	OrigDataRate	OrigDataStartFrame	OrigNumFrames
89.171974522293	89.171974522293	4	33	mm	89.171974522293	89	       141
Frame#	Time	Sacral			L.Shoulder			Chest			R.Shoulder			Neck			R.ASIS			L.ASIS			R.Thigh.Superior			R.Thigh.Lateral			R.Thigh.Inferior			R.Patella			L.Thigh.Superior			L.Thigh.Lateral			L.Thigh.Inferior			L.Patella			L.Shank.Superior			L.Shank.Lateral			L.Shank.Inferior			R.Shank.Superior			R.Shank.Lateral			R.Shank.Inferior			R.Heel			R.Midfoot.Superior			R.Midfoot.Lateral			R.Toe			L.Heel			L.Midfoot.Lateral			L.Midfoot.Superior			L.Toe			L.Elbow			L.Wrist			R.Elbow			R.Wrist			
		X1	Y1	Z1	X2	Y2	Z2	X3	Y3	Z3	X4	Y4	Z4	X5	Y5	Z5	X6	Y6	Z6	X7	Y7	Z7	X8	Y8	Z8	X9	Y9	Z9	X10	Y10	Z10	X11	Y11	Z11	X12	Y12	Z12	X13	Y13	Z13	X14	Y14	Z14	X15	Y15	Z15	X16	Y16	Z16	X17	Y17	Z17	X18	Y18	Z18	X19	Y19	Z19	X20	Y20	Z20	X21	Y21	Z21	X22	Y22	Z22	X23	Y23	Z23	X24	Y24	Z24	X25	Y25	Z25	X26	Y26	Z26	X27	Y27	Z27	X28	Y28	Z28	X29	Y29	Z29	X30	Y30	Z30	X31	Y31	Z31	X32	Y32	Z32	X33	Y33	Z33	

89	13.626857142857	880.154320024830	973.456780501474	503.188262760537	1034.202905358569	1421.169255999393	335.316002527641	1138.481780208561	1352.245826823163	496.083292339120	1045.970137025071	1413.861237797670	671.252242482097	1022.598780334540	1475.253705129544	492.674487529839	1114.868053586680	930.052430304643	621.975128003875	1096.906087468769	942.627303019318	344.646088904054	1194.633759285907	750.465944063631	593.164141895749	1139.342179859194	629.049416048128	654.518327717925	1227.090838760728	592.674823137146	575.564486586652	1246.860565307427	501.912623920190	583.743958593273	1144.363206700111	723.288319394816	368.557108650335	1059.703596350874	605.746539242247	301.962041115158	1150.638927641996	522.330426658079	356.829205498911	1140.476059378946	433.835937657930	352.022357115625	1062.480052814603	379.995676287944	347.490969438210	914.421996059733	360.660077775958	304.702900451719	883.214656352360	235.705191015801	360.432716811835	1221.542059393171	408.474131485694	591.348551665392	1154.492045245777	302.341049367324	655.189615517162	1200.867606393536	208.879164205108	593.379497073755	1070.814694687182	42.526759408877	564.465634407104	1240.973486876247	98.901543664973	599.309706603885	1154.340735938854	37.142364104392	639.529222811817	1361.397298331682	51.412303573174	626.966108345174	685.324801439579	198.651419405039	406.273181313574	733.871657388672	150.048618208464	322.181546881698	839.592808767528	143.088577373948	340.192904835495	901.284312505592	33.228074160529	304.624085045095	1084.204720195909	1089.970527814823	182.165385895813	1338.360349601728	1066.496676343545	210.213833698327	936.213218803502	1082.254943560370	771.588856217863	909.205561177400	824.007098319308	778.235029861445	
90	13.638071428571	879.122782273390	975.322202047956	506.188073157055	1032.463800170991	1422.762508395232	337.344823585410	1138.349769722275	1353.436343710910	496.939278061125	1047.843653736825	1414.991340424237	673.148580259314	1022.801995247635	1476.713123946366	494.862109013336	1114.313897956832	931.791882276881	623.599462434249	1095.254134660187	943.639830831920	346.307694452086	1192.050517976803	749.919253285243	596.398678195231	1134.799026324326	629.135788985852	656.413694702658	1222.373401996576	591.996734917039	577.584740268290	1240.971315867989	501.096784947256	585.411536580076	1148.375660349003	727.781762628782	370.026765443997	1067.638072065953	608.017097600319	303.015692629891	1162.063240238331	527.186465940246	356.801872749818	1153.865354271353	437.765461901411	351.657577625770	1075.024879580446	383.688256015654	347.687121640063	925.878170429276	367.820471433767	306.776529487538	892.896335261910	243.051007441040	362.112796789757	1214.833829153723	407.898061881075	592.786085352137	1146.874660164110	302.070775433623	656.162723356666	1192.626322018386	208.539341134581	594.107372329024	1061.864169408393	42.421247796980	564.689752506841	1231.954981621096	99.164671996406	599.801106421133	1145.340482428692	37.114407295614	639.737866679426	1352.359445192595	51.587855549957	627.217508197290	694.815100885106	211.596661981081	410.440879923102	740.643196790557	161.798516157971	325.287978731081	846.738996393797	150.622345414094	341.984704780974	903.534176451529	35.606308389023	304.361299597122	1073.837422321921	1088.410175179992	187.137105444407	1327.446142857378	1055.830667502005	213.038654777922	944.965442100422	1080.494152968062	774.342932176888	926.274860307733	821.347894261698	780.103723860194	
91	13.649285714286	878.018365800623	977.271829240399	509.099333225439	1030.564384292110	1424.371178508220	339.199918825893	1138.071825772119	1354.682306222935	497.611631218017	1049.613104782746	1416.204162526526	674.837365345559	1022.873248592117	1478.239015989606	496.851565946300	1113.620341210365	933.504627064433	625.092227311694	1093.379097854022	944.832297697875	347.946779912711	1189.126977329721	749.420643816901	599.257254523043	1130.050393318677	629.295444644312	658.188743451741	1217.313511479579	591.323593663901	579.418169211376	1234.685665159940	500.299820027813	587.004385080832	1151.949955268194	732.736482676957	371.271937306525	1074.931292520485	610.980915595138	303.900330451183	1172.719021615550	532.823540136921	356.514840050111	1166.691706725349	442.603049424541	351.084545744165	1087.391543846223	388.043215113146	347.747608709442	937.396703930917	374.543448451338	308.714301076428	903.491609881793	249.834463879222	363.775485270686	1207.787701726442	407.363500716528	594.144829059468	1139.038287825457	301.808016000747	657.102162065050	1184.228052752708	208.236446483851	594.793232603709	1052.863040257915	42.343311776113	564.890970078879	1222.936594296481	99.407157121941	600.322047294258	1136.300893173932	37.062734975298	639.920836954522	1343.308612378603	51.636746657519	627.429495714053	705.650637328409	221.923528812618	414.586445199881	749.296549384890	171.625472299390	328.409344118932	855.611983742917	157.648758635387	343.796154262202	908.910460845554	38.763619499764	304.158108331112	1063.352543502991	1087.124616490808	192.073150493655	1315.873114399167	1044.030085071513	215.829667374367	953.887797276278	1078.930694137811	776.922386296158	944.331963611022	819.086164849512	781.933235645426	
92	13.660500000000	876.884899641667	979.257434112108	511.937271648396	1028.544432784825	1425.982538718568	340.892815148531	1137.655104409640	1355.976548541011	498.130576058195	1051.259867588842	1417.509456871494	676.329234541018	1022.819886129706	1479.825016688876	498.646383609976	1112.829625656470	935.184971414637	626.473857031661	1091.295814757098	946.212470754203	349.577543447532	1185.921297678844	749.014694204130	601.668732212058	1125.162755585945	629.547395159411	659.835193621003	1211.974029964361	590.671766456447	581.056716498960	1228.068846712602	499.540132827056	588.501258778697	1155.078593974203	738.083742434194	372.325499413774	1081.613148265286	614.557075104713	304.621188471111	1182.584176639991	539.136294949075	356.018484952507	1178.902982132586	448.253298514390	350.325589794117	1099.537195238639	392.938234497461	347.680228287162	948.922412767453	380.606039293224	310.428124574847	914.983323715975	255.810090707086	365.340562364831	1200.469280928445	406.886072026516	595.418437222671	1131.023084919774	301.579832412904	657.999351835551	1175.711128075983	207.978081755626	595.437546821000	1043.820353931295	42.299342518826	565.073051402715	1213.932057552492	99.620132849122	600.860350939831	1127.231933959838	36.999466695818	640.084098071711	1334.252085726526	51.583011024508	627.606324232810	717.688596917421	229.353935555959	418.492700821403	759.788631821919	179.146539978388	331.393185006202	866.239248169223	163.807178802271	345.541249261645	917.550824427467	42.427198066117	304.088988755175	1052.853798834915	1086.122812979205	196.953057495003	1303.570963393279	1031.156459778011	218.578440853240	963.008490745600	1077.569593080028	779.291649840509	963.334361740034	817.324437282922	783.660806629709	
